<svg width="30" height="110" viewBox="0 0 30 110" fill="none" xmlns="http://www.w3.org/2000/svg">
<g filter="url(#filter0_dii_1_2325)">
<path d="M23.544 43.928C21.144 46.28 18.216 47.456 14.76 47.456C11.304 47.456 8.352 46.28 5.904 43.928C3.504 41.576 2.304 38.672 2.304 35.216C2.304 31.712 3.504 28.808 5.904 26.504C8.304 24.152 11.256 22.976 14.76 22.976C18.264 22.976 21.192 24.152 23.544 26.504C25.944 28.808 27.144 31.712 27.144 35.216C27.144 38.672 25.944 41.576 23.544 43.928ZM14.76 41.552C16.488 41.552 17.904 40.952 19.008 39.752C20.16 38.552 20.736 37.04 20.736 35.216C20.736 33.344 20.16 31.832 19.008 30.68C17.904 29.48 16.488 28.88 14.76 28.88C13.032 28.88 11.568 29.48 10.368 30.68C9.216 31.88 8.64 33.392 8.64 35.216C8.64 36.992 9.24 38.504 10.44 39.752C11.64 40.952 13.08 41.552 14.76 41.552Z" fill="white"/>
</g>
<defs>
<filter id="filter0_dii_1_2325" x="-55.6958" y="-23.024" width="132.84" height="132.48" filterUnits="userSpaceOnUse" color-interpolation-filters="sRGB">
<feFlood flood-opacity="0" result="BackgroundImageFix"/>
<feColorMatrix in="SourceAlpha" type="matrix" values="0 0 0 0 0 0 0 0 0 0 0 0 0 0 0 0 0 0 127 0" result="hardAlpha"/>
<feMorphology radius="4" operator="dilate" in="SourceAlpha" result="effect1_dropShadow_1_2325"/>
<feOffset dx="-4" dy="8"/>
<feGaussianBlur stdDeviation="25"/>
<feColorMatrix type="matrix" values="0 0 0 0 0 0 0 0 0 0 0 0 0 0 0 0 0 0 0.1 0"/>
<feBlend mode="normal" in2="BackgroundImageFix" result="effect1_dropShadow_1_2325"/>
<feBlend mode="normal" in="SourceGraphic" in2="effect1_dropShadow_1_2325" result="shape"/>
<feColorMatrix in="SourceAlpha" type="matrix" values="0 0 0 0 0 0 0 0 0 0 0 0 0 0 0 0 0 0 127 0" result="hardAlpha"/>
<feOffset dx="-6" dy="4"/>
<feGaussianBlur stdDeviation="2"/>
<feComposite in2="hardAlpha" operator="arithmetic" k2="-1" k3="1"/>
<feColorMatrix type="matrix" values="0 0 0 0 1 0 0 0 0 1 0 0 0 0 1 0 0 0 0.25 0"/>
<feBlend mode="normal" in2="shape" result="effect2_innerShadow_1_2325"/>
<feColorMatrix in="SourceAlpha" type="matrix" values="0 0 0 0 0 0 0 0 0 0 0 0 0 0 0 0 0 0 127 0" result="hardAlpha"/>
<feOffset dx="2" dy="-3"/>
<feGaussianBlur stdDeviation="3"/>
<feComposite in2="hardAlpha" operator="arithmetic" k2="-1" k3="1"/>
<feColorMatrix type="matrix" values="0 0 0 0 0 0 0 0 0 0 0 0 0 0 0 0 0 0 0.25 0"/>
<feBlend mode="normal" in2="effect2_innerShadow_1_2325" result="effect3_innerShadow_1_2325"/>
</filter>
</defs>
</svg>
